<svg width="74" height="74" viewBox="0 0 74 74" fill="none" xmlns="http://www.w3.org/2000/svg">
<path d="M40.3745 48.1911C39.9305 48.1911 39.4865 48.0149 39.1313 47.6919C38.4209 47.0165 38.4209 45.9005 39.1017 45.1957C44.7849 39.3811 47.1529 33.4489 45.3769 29.2788C44.4297 27.047 42.4169 25.7254 39.9601 25.7254C38.9833 25.7254 38.1841 24.9325 38.1841 23.9634C38.1841 22.9943 38.9833 22.2014 39.9601 22.2014C43.8377 22.2014 47.1529 24.3746 48.6625 27.8986C49.7873 30.5416 51.3561 37.7659 41.6769 47.6332C41.2921 48.0149 40.8185 48.1911 40.3745 48.1911Z" fill="white"/>
<path d="M28.1495 54.2114C25.4559 54.2114 22.8511 53.4478 20.4535 51.9501C14.3855 48.1324 10.6559 40.1152 10.4783 30.571C10.4487 29.132 10.4487 27.5756 10.4783 25.931C10.5079 24.9619 11.3071 24.169 12.2839 24.1984C13.2607 24.2277 14.0599 25.0206 14.0303 25.9897C14.0007 27.5756 14.0007 29.1026 14.0303 30.5123C14.1783 38.7644 17.3751 45.8418 22.3479 48.9841C25.6039 51.0397 29.3039 51.2453 33.0335 49.6008C33.9215 49.219 34.9871 49.6008 35.3719 50.4818C35.7567 51.3628 35.3719 52.42 34.4839 52.8018C32.3823 53.7415 30.2511 54.2114 28.1495 54.2114Z" fill="white"/>
<path d="M51.8297 54.3288C47.3305 54.3288 42.7425 52.2144 38.6281 48.1031C28.5049 38.0596 30.0441 30.6885 31.1689 27.9867C32.6489 24.4333 35.9937 22.2308 39.8713 22.2308C40.8481 22.2308 41.6473 23.0237 41.6473 23.9928C41.6473 24.9619 40.8481 25.7548 39.8713 25.7548C37.4145 25.7548 35.3721 27.1057 34.4249 29.3376C32.6489 33.5958 35.1353 39.6747 41.1145 45.6069C45.7321 50.1881 50.6161 51.7739 55.2633 50.2468C58.1937 49.2777 60.8281 47.0752 62.9297 44.021C66.4817 37.296 64.0841 33.3315 61.9825 29.8075C60.3249 27.047 58.4305 23.9047 61.4201 20.6743C61.4497 20.645 61.5089 20.5862 61.5385 20.5569C63.2849 19.0004 65.4457 18.6774 67.3401 19.6759C70.4481 21.3204 72.0169 26.0485 71.2473 31.452C69.6489 42.6114 63.9657 51.0985 56.3881 53.5947C54.9081 54.0939 53.3689 54.3288 51.8297 54.3288ZM63.9953 23.1118C62.9889 24.2571 63.3145 25.1381 65.0313 28.0161C65.8305 29.3376 66.7481 30.894 67.4289 32.7735C67.5473 32.1862 67.6361 31.5695 67.7249 30.9528C68.3465 26.6946 67.1033 23.5523 65.6529 22.7888C65.4753 22.6713 64.9129 22.3483 63.9953 23.1118Z" fill="white"/>
<path d="M13.4386 39.9978C13.3794 39.9978 13.3202 39.9978 13.261 39.9978C10.4194 39.7041 6.42339 38.9406 4.14419 35.5047C2.04259 32.3037 1.98339 27.6931 4.02579 21.3792C4.32179 20.4394 5.32819 19.9402 6.24579 20.2339C7.19299 20.5275 7.69619 21.526 7.40019 22.4364C5.74259 27.5756 5.62419 31.3346 7.10419 33.5665C8.19939 35.2404 10.2714 36.1507 13.6162 36.5031C14.593 36.5912 15.3034 37.4723 15.2146 38.4414C15.1258 39.3224 14.3266 39.9978 13.4386 39.9978Z" fill="white"/>
<path d="M13.4385 39.9978C12.7281 39.9978 12.0473 39.5573 11.7809 38.8525C11.4257 37.9421 11.8993 36.9142 12.8169 36.5912C15.1257 35.7396 17.6121 34.5355 18.5889 32.1568C19.5953 29.7193 19.0033 26.1953 16.8721 21.6434C16.4577 20.7624 16.8425 19.7052 17.7305 19.2941C18.6185 18.8829 19.6841 19.2647 20.0985 20.1457C22.7329 25.6961 23.3249 30.0717 21.9041 33.5077C20.3945 37.1785 16.9313 38.8525 14.0897 39.9097C13.8529 39.9684 13.6457 39.9978 13.4385 39.9978Z" fill="white"/>
<path d="M64.4693 21.849L61.7461 24.169L68.4949 35.1522L69.6789 24.9032L66.4525 21.849H64.4693Z" fill="white"/>
</svg>
