<svg width="74" height="74" viewBox="0 0 74 74" fill="none" xmlns="http://www.w3.org/2000/svg">
<path d="M36.9707 57.572C32.2939 57.572 27.8835 55.796 24.4795 52.5696C20.8683 49.1064 18.8555 44.4592 18.8555 39.4568C18.8555 35.076 20.4243 30.8432 23.2955 27.5576C26.1371 24.3016 30.0443 22.1408 34.2771 21.5192C35.3723 21.3416 36.4971 21.6672 37.3259 22.4072C38.1843 23.1472 38.6579 24.2128 38.6579 25.3376V33.9512C38.6579 34.928 37.8587 35.7272 36.8819 35.7272C35.9051 35.7272 35.1059 34.928 35.1059 33.9512V25.308C35.1059 25.1896 35.0467 25.1008 35.0171 25.0712C34.9579 25.012 34.8987 25.012 34.8099 25.012C27.7355 26.048 22.4371 32.264 22.4371 39.4272C22.4371 43.4528 24.0355 47.212 26.9363 49.9648C29.8371 52.7472 33.6555 54.168 37.6811 53.9904C45.0811 53.6352 51.1787 47.5968 51.5339 40.1968C51.8299 34.5432 48.7515 29.1856 43.6899 26.5512C42.8315 26.1072 42.4763 25.012 42.9499 24.1536C43.3939 23.2952 44.4891 22.94 45.3475 23.4136C51.6227 26.6992 55.4411 33.3592 55.0859 40.3744C54.8491 44.844 52.9843 49.0768 49.7579 52.2736C46.5611 55.4704 42.3283 57.3352 37.8291 57.5424C37.5627 57.5424 37.2667 57.572 36.9707 57.572Z" fill="white"/>
<path d="M37.0001 46.1168C33.3001 46.1168 30.3105 43.1272 30.3105 39.4272C30.3105 35.7272 33.3001 32.7376 37.0001 32.7376C40.7001 32.7376 43.6898 35.7272 43.6898 39.4272C43.6898 43.1272 40.7001 46.1168 37.0001 46.1168ZM37.0001 36.26C35.2537 36.26 33.8625 37.6808 33.8625 39.3976C33.8625 41.1144 35.2833 42.5352 37.0001 42.5352C38.7169 42.5352 40.1378 41.1144 40.1378 39.3976C40.1378 37.6808 38.7465 36.26 37.0001 36.26Z" fill="white"/>
<path d="M13.2314 32.7376C12.521 32.7376 11.8106 32.5304 11.189 32.0864L10.745 31.7904C8.55459 30.2808 7.48899 27.4984 8.14019 24.9232C8.49539 23.4728 9.11699 22.1112 10.005 20.8384C11.2186 19.092 12.6394 17.7008 14.2378 16.724C15.0666 16.2208 16.1618 16.4576 16.6946 17.316C17.1978 18.1448 16.961 19.24 16.1026 19.7728C15.2738 20.276 14.0602 21.2232 12.9058 22.8808C12.2546 23.7984 11.8106 24.7752 11.5738 25.7816C11.2778 26.936 11.7514 28.2088 12.7578 28.8896L13.2018 29.1856C13.2314 29.1856 13.2314 29.1856 13.261 29.1856L18.5002 21.608C19.0626 20.8088 20.1578 20.6016 20.957 21.164C21.7562 21.7264 21.9634 22.8216 21.401 23.6208L16.1618 31.1984C15.481 32.1752 14.3562 32.7376 13.2314 32.7376Z" fill="white"/>
<path d="M60.7687 32.7376C59.6439 32.7376 58.5191 32.2048 57.8087 31.1984L52.5695 23.6208C52.0071 22.8216 52.2143 21.6968 53.0135 21.164C53.8127 20.6016 54.9375 20.8088 55.4703 21.608L60.7095 29.1856C60.7095 29.1856 60.7391 29.2152 60.7687 29.1856L61.2127 28.8896C62.2191 28.2088 62.6927 26.936 62.3967 25.7816C62.1599 24.7752 61.6863 23.7984 61.0647 22.8808C59.9103 21.2232 58.6967 20.276 57.8679 19.7728C57.0391 19.2696 56.7727 18.1744 57.2759 17.316C57.7791 16.4872 58.8743 16.2208 59.7327 16.724C61.3311 17.7304 62.7815 19.092 63.9655 20.8384C64.8535 22.1112 65.4751 23.5024 65.8303 24.9232C66.4519 27.4984 65.4159 30.2808 63.2255 31.7904L62.7815 32.0864C62.1895 32.5304 61.4791 32.7376 60.7687 32.7376Z" fill="white"/>
</svg>
