<svg width="78" height="30" viewBox="0 0 78 30" fill="none" xmlns="http://www.w3.org/2000/svg">
<path d="M77.6132 14.1993C77.6132 13.9511 77.6132 13.7028 77.5511 13.4546C77.5511 13.2063 77.4891 12.9581 77.427 12.7098C76.434 6.56551 71.531 1.91074 65.5108 0.731532C65.3246 0.669468 65.1384 0.669464 65.0143 0.669464C64.6419 0.607401 64.2075 0.545339 63.773 0.545339C63.4006 0.483275 62.9662 0.483276 62.5317 0.483276C62.0973 0.483276 61.6628 0.483275 61.2905 0.545339C60.9801 0.545339 60.6698 0.607401 60.2974 0.669464C59.3665 0.793592 58.4355 1.04185 57.5666 1.2901L56.2633 1.72455C52.3533 2.90376 46.0228 6.87583 41.6784 12.1512C41.6163 12.2754 41.4301 12.2133 41.4301 12.0892V7.06202C41.4301 6.7517 41.1819 6.44138 40.8095 6.44138C39.9406 6.44138 38.3269 6.44138 37.458 6.44138C37.0857 6.44138 36.8374 6.68964 36.8374 7.06202V17.799V23.1986C36.8374 23.5089 37.0857 23.8192 37.458 23.8192H40.8095C41.1198 23.8192 41.4301 23.5709 41.4301 23.1986C41.8646 15.6268 50.3673 9.54456 52.3533 8.1171C55.3944 5.88281 59.0562 4.76566 62.0352 4.64154C62.2835 4.64154 62.5938 4.64154 62.8421 4.64154C67.9313 4.64154 71.9654 8.42741 72.8964 13.2063C72.9584 13.5166 73.0205 13.827 73.0205 14.1993C73.0826 14.5717 73.0826 14.882 73.0826 15.2544C73.0826 15.5647 73.0826 15.9371 73.0205 16.2474C73.0205 16.5578 72.9584 16.8681 72.8964 17.2404C72.0275 22.0193 67.9933 25.8052 62.9041 25.8052C62.7179 25.8052 62.5317 25.8052 62.3455 25.8052C59.9871 25.6811 57.6908 24.626 55.8909 23.1365C55.5185 22.7641 55.1462 22.7641 54.8979 23.1365L53.0981 24.9363C52.7877 25.2467 52.7877 25.7432 53.1601 26.0535C55.8909 28.474 58.87 29.8394 62.9662 29.8394C69.5449 29.8394 75.0686 25.557 76.9305 19.5989C77.0546 19.1644 77.1788 18.6679 77.3029 18.2335C77.3649 18.0473 77.3649 17.8611 77.427 17.6128C77.5511 16.806 77.6132 15.9992 77.6132 15.1924V15.0682C77.6132 14.6338 77.6132 14.3855 77.6132 14.1993Z" fill="white"/>
<path d="M25.9142 22.0194C22.8731 24.2536 19.2113 25.3708 16.2323 25.4949C15.984 25.4949 15.6737 25.4949 15.4254 25.4949C10.3362 25.4949 6.30209 21.709 5.37113 16.9301C5.30907 16.6198 5.247 16.3095 5.247 15.9371C5.18494 15.5647 5.18494 15.2544 5.18494 14.882C5.18494 14.5717 5.18494 14.1993 5.247 13.889C5.247 13.5787 5.30907 13.2684 5.37113 12.896C6.24002 8.1171 10.2742 4.33122 15.3634 4.33122C15.5496 4.33122 15.7358 4.33122 15.9219 4.33122C18.2804 4.45535 20.5767 5.51043 22.3766 6.99996C22.7489 7.37234 23.1213 7.37234 23.3696 6.99996L25.1694 5.20012C25.4797 4.8898 25.4797 4.39329 25.1074 4.08297C22.3766 1.66249 19.3975 0.297089 15.3013 0.297089C8.72257 0.297089 3.19891 4.57948 1.337 10.5376C1.21287 10.972 1.08874 11.4685 0.964615 11.903C0.902551 12.0892 0.902551 12.2754 0.840487 12.5236C0.71636 13.3305 0.654297 14.1373 0.654297 14.9441V15.0682C0.654297 15.3165 0.654297 15.5647 0.654297 15.7509C0.654297 15.9992 0.654297 16.2474 0.716361 16.4957C0.716361 16.7439 0.778424 16.9922 0.840487 17.2405C1.83351 23.3848 6.73653 28.0395 12.7567 29.2187C12.9429 29.2808 13.1291 29.2808 13.2532 29.2808C13.6256 29.3429 14.06 29.4049 14.4945 29.4049C14.8669 29.467 15.3013 29.467 15.7358 29.467C16.1702 29.467 16.6046 29.467 16.977 29.4049C17.2873 29.4049 17.5977 29.3429 17.97 29.2808C18.901 29.1567 19.832 28.9084 20.7008 28.6602L22.0042 28.2257C24.5488 27.481 28.0244 25.557 31.4378 22.8262C32.1205 22.2676 32.2447 21.647 32.2447 20.2816V19.0403C32.2447 17.1163 31.624 16.806 30.9413 17.5508C28.7691 20.0954 26.8451 21.3987 25.9142 22.0194Z" fill="white"/>
</svg>
