<svg width="60" height="11" viewBox="0 0 60 11" fill="none" xmlns="http://www.w3.org/2000/svg">
<path d="M0.838867 5.67146C0.838867 4.80257 0.900932 4.0578 1.08712 3.49923C1.27331 2.8786 1.4595 2.38208 1.76982 2.0097C2.08014 1.63732 2.39046 1.327 2.8249 1.20287C3.25935 1.07874 3.69379 0.95462 4.1903 0.95462C4.56269 0.95462 4.93507 1.01669 5.24539 1.14081C5.43158 1.20288 5.61777 1.26494 5.80396 1.38906C5.92808 1.45113 5.99015 1.63732 5.92808 1.76145L5.61777 2.50621C5.43158 2.38208 5.18332 2.25795 4.93507 2.13383C4.68681 2.07176 4.43856 2.0097 4.12824 2.0097C3.38347 2.0097 2.8249 2.32002 2.51459 2.94065C2.20427 3.56129 2.01808 4.49224 2.01808 5.73352C2.01808 6.41622 2.08014 6.97479 2.1422 7.40923C2.26633 7.90574 2.39046 8.27813 2.57665 8.58845C2.76284 8.89876 3.01109 9.08495 3.25935 9.27114C3.5076 9.39527 3.81792 9.45733 4.12824 9.45733C4.31443 9.45733 4.43856 9.45734 4.56268 9.39528C4.68681 9.39528 4.81094 9.27115 4.81094 9.08496V6.04383C4.81094 5.85764 4.93507 5.73352 5.12126 5.73352H5.67983C5.86602 5.73352 5.99015 5.85764 5.99015 6.04383V9.39528C5.99015 9.76766 5.74189 10.14 5.36951 10.2021C5.30745 10.2021 5.18332 10.2642 5.12126 10.2642C4.74888 10.3262 4.37649 10.3883 4.00411 10.3883C3.5076 10.3883 3.07316 10.2642 2.70078 10.078C2.32839 9.89178 1.95601 9.58146 1.64569 9.20908C1.33538 8.8367 1.14919 8.34019 0.962995 7.71955C0.900931 7.22304 0.838867 6.47829 0.838867 5.67146Z" fill="white"/>
<path d="M14.4313 1.26455C15.0519 1.14042 15.6105 1.0163 16.169 1.0163C16.6035 1.0163 17.0379 1.07835 17.4103 1.20248C17.7827 1.32661 18.093 1.45074 18.3413 1.69899C18.5895 1.94724 18.7757 2.19551 18.9619 2.56789C19.086 2.94027 19.1481 3.37471 19.1481 3.87122C19.1481 4.49185 19.024 4.98836 18.7757 5.42281C18.5895 5.73313 18.2792 5.98138 17.9689 6.22964C17.8448 6.2917 17.8448 6.41582 17.9068 6.47789C17.9689 6.60201 18.093 6.78821 18.2171 7.03647C18.4033 7.34678 18.5275 7.6571 18.7136 8.02948C18.8998 8.40186 19.024 8.77424 19.2102 9.14662C19.3343 9.39488 19.3963 9.64314 19.4584 9.82933C19.5205 10.0155 19.3963 10.2017 19.1481 10.2017H18.5895C18.4654 10.2017 18.3413 10.1396 18.3413 10.0155C18.2792 9.82933 18.1551 9.58107 18.0309 9.33282C17.9068 9.0225 17.7206 8.65011 17.5965 8.3398C17.4103 8.02948 17.2862 7.71916 17.1 7.40884C16.9759 7.16059 16.8517 6.9744 16.7276 6.78821C16.6655 6.72614 16.6035 6.66408 16.5414 6.66408C16.4173 6.66408 16.3552 6.66408 16.2311 6.66408C16.107 6.66408 15.7967 6.66408 15.6105 6.66408C15.5484 6.66408 15.4863 6.72614 15.4863 6.78821V9.89139C15.4863 10.0776 15.3622 10.2017 15.176 10.2017H14.6174C14.4313 10.2017 14.3071 10.0776 14.3071 9.89139V1.26455H14.4313ZM15.5484 5.54693C15.5484 5.609 15.6105 5.67107 15.6725 5.67107H16.0449C16.6655 5.67107 17.1 5.54693 17.4103 5.23661C17.7206 4.98836 17.9068 4.49186 17.9068 3.80916C17.9068 3.49884 17.8448 3.18852 17.7827 2.94026C17.7206 2.69201 17.5965 2.50582 17.4103 2.38169C17.2862 2.25757 17.1 2.13344 16.8517 2.07138C16.6655 2.00931 16.4173 2.00931 16.169 2.00931C15.9208 2.00931 15.7346 2.00931 15.5484 2.07138V5.54693V5.54693Z" fill="white"/>
<path d="M33.3603 5.67103C33.3603 6.35373 33.2983 7.03642 33.1741 7.59499C33.05 8.15357 32.8638 8.65008 32.6156 9.08453C32.3673 9.51897 31.9949 9.82929 31.6225 10.0155C31.1881 10.2637 30.7537 10.3258 30.1951 10.3258C29.6365 10.3258 29.14 10.2017 28.7676 10.0155C28.3332 9.76723 28.0229 9.45691 27.7746 9.08453C27.5263 8.65008 27.3402 8.15357 27.154 7.59499C27.0298 7.03642 26.9678 6.35373 26.9678 5.67103C26.9678 4.98833 27.0298 4.30562 27.154 3.74705C27.2781 3.18848 27.4643 2.69197 27.7746 2.25753C28.0229 1.82308 28.3952 1.51276 28.7676 1.26451C29.2021 1.01625 29.6365 0.89212 30.1951 0.89212C30.7537 0.89212 31.2502 1.01625 31.6225 1.26451C32.057 1.51276 32.3673 1.82308 32.6156 2.25753C32.8638 2.69197 33.05 3.18848 33.1741 3.74705C33.2983 4.30562 33.3603 4.98833 33.3603 5.67103ZM32.1191 5.67103C32.1191 5.11245 32.057 4.61594 31.9949 4.18149C31.9329 3.74705 31.8087 3.31261 31.6846 3.00229C31.4984 2.69197 31.3122 2.44372 31.064 2.25753C30.8157 2.07134 30.5054 2.00927 30.133 2.00927C29.7606 2.00927 29.4503 2.07134 29.2021 2.25753C28.9538 2.44372 28.7676 2.69197 28.5814 3.00229C28.3952 3.31261 28.3332 3.74705 28.209 4.18149C28.147 4.61594 28.0849 5.11245 28.0849 5.67103C28.0849 6.2296 28.147 6.7261 28.209 7.16055C28.2711 7.59499 28.3952 8.02944 28.5814 8.33975C28.7676 8.65007 28.9538 8.89833 29.2021 9.08453C29.4503 9.27072 29.7606 9.33278 30.133 9.33278C30.5054 9.33278 30.8157 9.27072 31.064 9.08453C31.3122 8.89833 31.4984 8.65007 31.6846 8.33975C31.8708 8.02944 31.9329 7.65706 31.9949 7.16055C32.057 6.66404 32.1191 6.2296 32.1191 5.67103Z" fill="white"/>
<path d="M43.5387 10.3879C42.6699 10.3879 42.0492 10.1396 41.6148 9.64314C41.1803 9.14663 40.9941 8.40187 40.9941 7.34678V1.38867C40.9941 1.20248 41.1183 1.07835 41.3045 1.07835H41.863C42.0492 1.07835 42.1734 1.20248 42.1734 1.38867V7.28472C42.1734 7.96742 42.2975 8.46393 42.4837 8.83631C42.6699 9.20869 43.0422 9.33282 43.5387 9.33282C44.0973 9.33282 44.4697 9.14663 44.6559 8.77425C44.8421 8.40187 44.9662 7.90536 44.9662 7.22266V1.32661C44.9662 1.14042 45.0903 1.0163 45.2765 1.0163H45.8351C46.0213 1.0163 46.1454 1.14042 46.1454 1.32661V7.28472C46.1454 8.27773 45.8972 9.08457 45.4627 9.51901C45.0283 10.1396 44.4076 10.3879 43.5387 10.3879Z" fill="white"/>
<path d="M54.2759 1.26455C54.8966 1.14042 55.4551 1.0163 56.0758 1.0163C56.5102 1.0163 56.9447 1.07835 57.317 1.20248C57.6894 1.32661 57.9997 1.45074 58.248 1.69899C58.4963 1.94725 58.7445 2.25757 58.8686 2.56789C58.9928 2.94027 59.0548 3.37471 59.0548 3.87122C59.0548 4.36773 58.9928 4.86423 58.8066 5.23662C58.6824 5.609 58.4342 5.91931 58.1859 6.16757C57.9377 6.41582 57.5653 6.53995 57.1929 6.66408C56.8205 6.78821 56.3861 6.85027 55.9516 6.85027H55.7034C55.5172 6.85027 55.3931 6.9744 55.3931 7.16059V9.95345C55.3931 10.1396 55.2689 10.2638 55.0828 10.2638H54.5242C54.338 10.2638 54.2139 10.1396 54.2139 9.95345V1.26455H54.2759ZM55.4551 5.54693C55.4551 5.67106 55.5793 5.79519 55.7034 5.79519C56.0137 5.79519 56.5723 5.73313 56.7585 5.73313C57.0067 5.67106 57.1929 5.54694 57.3791 5.42281C57.5653 5.29868 57.6894 5.11249 57.7515 4.86424C57.8136 4.61598 57.8756 4.36772 57.8756 3.99534C57.8756 3.62296 57.8136 3.37471 57.7515 3.12646C57.6894 2.8782 57.5653 2.69201 57.3791 2.56789C57.255 2.44376 57.0688 2.31963 56.8205 2.25757C56.5723 2.19551 56.3861 2.1955 56.0758 2.1955C55.8275 2.1955 55.6413 2.19551 55.4551 2.25757V5.54693Z" fill="white"/>
</svg>
