<svg width="74" height="74" viewBox="0 0 74 74" fill="none" xmlns="http://www.w3.org/2000/svg">
<path d="M45.3174 61.23H24.035C20.1574 61.23 16.9902 58.0878 16.9902 54.2407V19.1178C16.9902 15.3001 20.1278 12.1873 23.9758 12.1873H45.5542C49.4022 12.1873 52.5102 15.2708 52.5102 19.0885C52.5102 20.9386 50.971 22.4657 49.1062 22.4657H38.3022C36.9998 22.4657 35.9342 23.5229 35.9342 24.815C35.9342 26.1072 36.9998 27.1644 38.3022 27.1644H49.1062C50.971 27.1644 52.5102 28.6915 52.5102 30.5416V54.0939C52.5102 58.029 49.2838 61.23 45.3174 61.23ZM23.9462 15.7113C22.0518 15.7113 20.5126 17.2384 20.5126 19.1178V54.2407C20.5126 56.1495 22.0814 57.706 24.0054 57.706H45.2878C47.3006 57.706 48.9286 56.0908 48.9286 54.0939V30.6884H38.2726C35.0166 30.6884 32.3526 28.0454 32.3526 24.815C32.3526 21.5847 35.0166 18.9416 38.2726 18.9416H48.9286C48.8398 17.1503 47.3598 15.7113 45.5246 15.7113H23.9462Z" fill="white"/>
<path d="M43.3347 39.4985H25.8707C24.8939 39.4985 24.0947 38.7056 24.0947 37.7365C24.0947 36.7674 24.8939 35.9745 25.8707 35.9745H43.3347C44.3115 35.9745 45.1107 36.7674 45.1107 37.7365C45.1107 38.7056 44.3115 39.4985 43.3347 39.4985Z" fill="white"/>
<path d="M25.2788 14.2429V20.7036C25.2788 21.6728 26.078 22.4657 27.0548 22.4657C28.0316 22.4657 28.8308 21.6728 28.8308 20.7036V14.2429" fill="white"/>
<path d="M27.0547 23.6403C25.4267 23.6403 24.0947 22.3188 24.0947 20.7036V14.2429C24.0947 13.5968 24.6275 13.0682 25.2787 13.0682C25.9299 13.0682 26.4627 13.5968 26.4627 14.2429V20.7036C26.4627 21.0267 26.7291 21.291 27.0547 21.291C27.3803 21.291 27.6467 21.0267 27.6467 20.7036V14.2429C27.6467 13.5968 28.1795 13.0682 28.8307 13.0682C29.4819 13.0682 30.0147 13.5968 30.0147 14.2429V20.7036C30.0147 22.3188 28.6827 23.6403 27.0547 23.6403Z" fill="white"/>
<path d="M43.3347 45.6656H25.8707C24.8939 45.6656 24.0947 44.8727 24.0947 43.9036C24.0947 42.9344 24.8939 42.1415 25.8707 42.1415H43.3347C44.3115 42.1415 45.1107 42.9344 45.1107 43.9036C45.1107 44.8727 44.3115 45.6656 43.3347 45.6656Z" fill="white"/>
<path d="M43.3347 52.7136H25.8707C24.8939 52.7136 24.0947 51.9207 24.0947 50.9516C24.0947 49.9825 24.8939 49.1896 25.8707 49.1896H43.3347C44.3115 49.1896 45.1107 49.9825 45.1107 50.9516C45.1107 51.9207 44.3115 52.7136 43.3347 52.7136Z" fill="white"/>
<path d="M11.6625 46.5466C10.6857 46.5466 9.88651 45.7537 9.88651 44.7845V39.4985H9.85691C6.74891 39.4985 4.23291 37.0023 4.23291 33.9482C4.23291 30.8646 6.74891 28.3684 9.85691 28.3684H9.88651V23.0824C9.88651 22.1133 10.6857 21.3204 11.6625 21.3204C12.6393 21.3204 13.4385 22.1133 13.4385 23.0824V30.1305C13.4385 31.0996 12.6393 31.8925 11.6625 31.8925H9.85691C8.70251 31.8925 7.78491 32.8322 7.78491 33.9482C7.78491 35.0641 8.70251 36.0038 9.85691 36.0038H11.6625C12.6393 36.0038 13.4385 36.7967 13.4385 37.7659V44.8139C13.4385 45.7537 12.6393 46.5466 11.6625 46.5466Z" fill="white"/>
<path d="M62.4264 46.5466C61.864 46.5466 61.3312 46.2823 61.0056 45.8418L55.6776 38.6469C55.0856 37.854 55.2632 36.7674 56.0624 36.1801C56.8616 35.5927 57.9568 35.7689 58.5488 36.5618L62.16 41.4661L69.4416 27.2819C69.8856 26.4009 70.9512 26.0779 71.8392 26.5184C72.7272 26.9589 73.0528 28.0161 72.6088 28.8971L64.0248 45.6362C63.7584 46.1942 63.196 46.5466 62.5744 46.6053C62.5152 46.5466 62.456 46.5466 62.4264 46.5466Z" fill="white"/>
</svg>
