<svg width="74" height="74" viewBox="0 0 74 74" fill="none" xmlns="http://www.w3.org/2000/svg">
<path d="M47.0047 64.972H25.6039C21.7855 64.972 18.5591 61.6864 18.5591 57.7792V28.8304C18.5591 24.4496 20.2463 20.3056 23.3247 17.168L23.3543 17.1384L28.4455 12.1952C30.4583 10.1824 33.2999 9.02802 36.2599 9.02802C39.2199 9.02802 42.0023 10.1528 44.0743 12.1952L49.1951 17.02C52.3327 20.1576 54.0791 24.3608 54.0791 28.8008V57.7496C54.0791 61.6864 50.8527 64.972 47.0047 64.972ZM25.8407 19.6544C23.4135 22.1112 22.1111 25.3672 22.1111 28.8304V57.7792C22.1111 59.7624 23.7095 61.42 25.6039 61.42H47.0047C48.8991 61.42 50.4975 59.7624 50.4975 57.7792V28.8304C50.4975 25.3376 49.1359 22.052 46.6791 19.5656L41.5583 14.7408C40.1671 13.3496 38.2727 12.58 36.2599 12.58C34.2471 12.58 32.2935 13.3496 30.9319 14.7112L25.8407 19.6544Z" fill="white"/>
<path d="M36.319 30.4288C32.619 30.4288 29.6294 27.4392 29.6294 23.7392C29.6294 20.0392 32.619 17.0496 36.319 17.0496C40.019 17.0496 43.0086 20.0392 43.0086 23.7392C43.0086 27.4392 39.9894 30.4288 36.319 30.4288ZM36.319 20.572C34.5726 20.572 33.1814 21.9928 33.1814 23.7096C33.1814 25.4264 34.6022 26.8472 36.319 26.8472C38.0654 26.8472 39.4566 25.4264 39.4566 23.7096C39.4566 21.9928 38.0358 20.572 36.319 20.572Z" fill="white"/>
<path d="M34.3951 57.424C33.5071 57.424 32.7671 56.684 32.7671 55.796V36.26C32.7671 35.372 33.5071 34.632 34.3951 34.632C35.2831 34.632 36.0231 35.372 36.0231 36.26V55.796C36.0231 56.7136 35.2831 57.424 34.3951 57.424Z" fill="white"/>
<path d="M39.1311 47.508H30.1031C29.2151 47.508 28.4751 46.768 28.4751 45.88C28.4751 44.992 29.2151 44.252 30.1031 44.252H39.1311C39.4567 44.252 39.9599 44.1632 40.4039 43.4529C40.8183 42.8017 41.0551 41.8544 41.0551 40.848C41.0551 39.4864 40.5519 37.444 39.1311 37.444H30.1031C29.2151 37.444 28.4751 36.704 28.4751 35.816C28.4751 34.928 29.2151 34.188 30.1031 34.188H39.1311C42.1207 34.188 44.3111 37 44.3111 40.848C44.3111 42.476 43.8967 44.0153 43.1863 45.1697C42.2095 46.6793 40.7887 47.508 39.1311 47.508Z" fill="white"/>
<path d="M40.7591 52.8361H30.1031C29.2151 52.8361 28.4751 52.0961 28.4751 51.2081C28.4751 50.3201 29.2151 49.5801 30.1031 49.5801H40.7591C41.6471 49.5801 42.3871 50.3201 42.3871 51.2081C42.3871 52.0961 41.6471 52.8361 40.7591 52.8361Z" fill="white"/>
<path d="M11.8694 34.4545C11.6918 34.4545 11.5142 34.4249 11.3366 34.3361C3.55177 30.9321 1.65737 30.1921 1.21337 30.0441C1.15417 30.0441 1.09497 30.0145 1.06537 30.0145C0.354968 29.8369 -0.0594317 29.1264 0.118168 28.4456C0.206968 28.0608 0.473368 27.7648 0.798968 27.5872C1.53897 27.232 1.53897 27.232 12.4022 31.9977C13.0534 32.2937 13.3494 33.0633 13.083 33.7145C12.8462 34.1585 12.3726 34.4545 11.8694 34.4545Z" fill="white"/>
<path d="M1.36151 55.4704C0.858309 55.4704 0.384709 55.1744 0.177509 54.7008C-0.118491 54.0496 0.177509 53.28 0.828709 52.984C0.828709 52.984 5.03191 51.0896 11.1887 48.3368C11.8399 48.0408 12.6095 48.3368 12.9055 48.988C13.2015 49.6392 12.9055 50.4088 12.2543 50.7048C6.09751 53.4576 1.89431 55.352 1.89431 55.352C1.71671 55.4112 1.53911 55.4704 1.36151 55.4704Z" fill="white"/>
<path d="M60.8278 34.4544C60.3246 34.4544 59.851 34.1584 59.6438 33.6848C59.3478 33.0336 59.6438 32.264 60.3246 31.968C71.1878 27.2024 71.1878 27.2024 71.9278 27.5576C72.283 27.7352 72.5198 28.0312 72.6086 28.416C72.7862 29.1264 72.3422 29.8072 71.6614 29.9848C71.6022 29.9848 71.543 30.0144 71.4838 30.0144C71.0398 30.1624 69.1454 30.9024 61.331 34.336C61.183 34.4248 61.0054 34.4544 60.8278 34.4544Z" fill="white"/>
<path d="M71.3358 55.4704C71.1582 55.4704 70.9806 55.4408 70.803 55.352C70.803 55.352 66.5998 53.4576 60.443 50.7048C59.7918 50.4088 59.4958 49.6392 59.7918 48.988C60.0878 48.3368 60.8574 48.0408 61.5086 48.3368C67.6654 51.0896 71.8686 52.984 71.8686 52.984C72.5198 53.28 72.8158 54.0496 72.5198 54.7008C72.3126 55.1744 71.839 55.4704 71.3358 55.4704Z" fill="white"/>
</svg>
