<svg width="74" height="74" viewBox="0 0 74 74" fill="none" xmlns="http://www.w3.org/2000/svg">
<path d="M41.0552 60.384H31.2872C30.3104 60.384 29.5112 59.5848 29.5112 58.608C29.5112 57.6312 30.3104 56.832 31.2872 56.832H41.0552C42.032 56.832 42.8312 57.6312 42.8312 58.608C42.8312 59.5848 42.032 60.384 41.0552 60.384Z" fill="white"/>
<path d="M18.1449 42.7128C13.9713 42.7128 10.7153 38.6872 9.29453 34.6912C7.96253 30.932 8.37693 27.7352 10.4193 26.0776C11.2777 25.3672 12.4025 25.012 13.6753 25.012C17.8785 25.012 23.2657 29.0376 24.7753 33.3C25.8113 36.2304 25.0121 39.0424 22.5257 41.0552C21.1641 42.1504 19.6841 42.7128 18.1449 42.7128ZM13.6753 28.564C13.2313 28.564 12.8761 28.6528 12.6393 28.8304C11.9881 29.3632 11.7809 31.1096 12.6097 33.5072C13.5865 36.2304 15.8361 39.1608 18.1153 39.1608C18.8257 39.1608 19.5361 38.8648 20.2761 38.2728C21.5785 37.2072 21.9337 35.9936 21.4009 34.484C20.3057 31.3464 16.1617 28.564 13.6753 28.564Z" fill="white"/>
<path d="M51.2675 41.3513C50.8827 41.3513 50.4683 41.2329 50.1427 40.9665C48.3075 39.4865 47.3307 37.7401 47.2715 35.7569C47.0939 31.5537 51.0011 27.7945 53.5763 25.3081C53.8131 25.0713 54.0203 24.8641 54.2275 24.6865C54.9379 24.0057 56.0627 24.0057 56.7435 24.7161C57.4243 25.4265 57.4243 26.5513 56.7139 27.2321C56.5067 27.4393 56.2699 27.6465 56.0331 27.8833C54.0499 29.8073 50.7051 33.0041 50.8235 35.6385C50.8531 36.5857 51.3859 37.4145 52.3923 38.2433C53.1619 38.8649 53.2803 39.9897 52.6587 40.7297C52.3035 41.1441 51.8003 41.3513 51.2675 41.3513Z" fill="white"/>
<path d="M54.7305 42.7424C53.1321 42.7424 51.5929 42.1208 50.0833 40.9072C49.3137 40.2856 49.1953 39.1608 49.8169 38.4208C50.4385 37.6512 51.5633 37.5328 52.3033 38.1544C53.3097 38.9832 54.2569 39.3088 55.1745 39.1608C57.7497 38.7168 60.2065 34.8096 61.6569 32.4416C61.8345 32.1456 62.0121 31.8792 62.1601 31.6424C62.6929 30.8136 63.7881 30.5768 64.6169 31.1096C65.4457 31.6424 65.6825 32.7376 65.1497 33.5664C65.0017 33.8032 64.8537 34.0696 64.6761 34.336C62.7817 37.3848 59.9105 41.9728 55.7665 42.6832C55.4409 42.7128 55.0857 42.7424 54.7305 42.7424Z" fill="white"/>
<path d="M51.4747 41.144C51.0899 41.144 50.6755 41.0256 50.3499 40.7592C49.5803 40.1376 49.4619 39.0128 50.0835 38.2728L56.5955 30.2216C57.2171 29.452 58.3419 29.3336 59.0819 29.9552C59.8515 30.5768 59.9699 31.7016 59.3483 32.4416L52.8363 40.4928C52.5107 40.9072 51.9779 41.144 51.4747 41.144Z" fill="white"/>
<path d="M36.1716 60.384H31.2876C30.3108 60.384 29.5116 59.5848 29.5116 58.608C29.5116 57.6312 30.3108 56.832 31.2876 56.832H34.3956L34.4548 40.108C32.1756 39.7232 30.3108 38.628 29.038 36.852C24.2428 30.2512 28.5348 16.3984 29.038 14.8296C29.2748 14.0896 29.9556 13.616 30.7252 13.616H41.7956C42.5652 13.616 43.246 14.1192 43.4828 14.8592C43.986 16.428 48.278 30.2512 43.4532 36.8816C42.1508 38.6576 40.286 39.7824 38.0068 40.1376L37.9476 58.6376C37.9476 59.5848 37.1484 60.384 36.1716 60.384ZM32.0276 17.168C30.7548 21.6376 29.0084 30.8136 31.9092 34.78C32.8564 36.0824 34.2772 36.704 36.2308 36.704C38.214 36.704 39.6348 36.0824 40.582 34.78C43.4532 30.8136 41.7364 21.6672 40.4636 17.168H32.0276Z" fill="white"/>
<path d="M41.0551 60.384H36.3191C35.3423 60.384 34.5431 59.5848 34.5431 58.608L34.4839 38.48C34.4839 37.5032 35.2831 36.704 36.2599 36.704C37.2367 36.704 38.0359 37.5032 38.0359 38.48L38.0951 56.832H41.0551C42.0319 56.832 42.8311 57.6312 42.8311 58.608C42.8311 59.5848 42.0319 60.384 41.0551 60.384Z" fill="white"/>
<path d="M36.3195 60.384C35.3427 60.384 34.5435 59.5848 34.5435 58.608C34.5435 48.9288 32.2643 48.0408 28.5051 46.5608C26.0483 45.584 22.9699 44.4 20.0395 40.8184C19.4179 40.0488 19.5363 38.9536 20.2763 38.332C21.0459 37.7104 22.1411 37.8288 22.7627 38.5688C25.1011 41.4104 27.4691 42.3576 29.7779 43.2456C31.9091 44.0744 34.0995 44.9624 35.6979 47.2712C37.3259 49.6392 38.0659 53.1616 38.0659 58.608C38.0955 59.5848 37.2963 60.384 36.3195 60.384Z" fill="white"/>
<path d="M36.4674 60.3841C35.4906 60.3841 34.6914 59.5849 34.6914 58.6081C34.6914 53.1617 35.4314 49.6689 37.0594 47.2713C38.6578 44.9625 40.8482 44.1041 42.9794 43.2457C45.2882 42.3281 47.6562 41.4105 49.9946 38.5689C50.6162 37.7993 51.741 37.7105 52.481 38.3321C53.2506 38.9537 53.3394 40.0785 52.7178 40.8185C49.7874 44.4001 46.7386 45.5841 44.2522 46.5609C40.493 48.0409 38.2138 48.9289 38.2138 58.6081C38.2434 59.5849 37.4442 60.3841 36.4674 60.3841Z" fill="white"/>
</svg>
