<svg width="74" height="74" viewBox="0 0 74 74" fill="none" xmlns="http://www.w3.org/2000/svg">
<path d="M11.5439 53.3983C10.5671 53.3983 9.7679 52.5991 9.7679 51.6223V43.9559C9.7679 43.5711 9.4423 43.2159 9.0279 43.1271C3.9663 41.9727 0.325498 37.4143 0.295898 32.2639C0.295898 28.6231 2.1607 25.1895 5.2687 23.0879C6.0975 22.5255 7.1927 22.7623 7.7255 23.5615C8.2879 24.3607 8.0511 25.4855 7.2519 26.0183C5.0911 27.4687 3.8479 29.7479 3.8479 32.2639C3.8479 35.7863 6.3639 38.8943 9.7975 39.6639C11.8695 40.1375 13.3199 41.9135 13.3199 43.9559V51.6223C13.3199 52.5991 12.5207 53.3983 11.5439 53.3983Z" fill="white"/>
<path d="M25.3672 34.3656C19.2104 34.3656 14.208 29.3632 14.208 23.2064C14.208 17.0496 19.2104 12.0176 25.3672 12.0176C31.524 12.0176 36.556 17.02 36.556 23.2064C36.556 24.1832 35.7568 24.9824 34.78 24.9824C33.8032 24.9824 33.004 24.1832 33.004 23.2064C33.004 19.0032 29.5704 15.5696 25.3672 15.5696C21.164 15.5696 17.76 19.0032 17.76 23.2064C17.76 27.4096 21.1936 30.8432 25.3672 30.8432C26.344 30.8432 27.1432 31.6424 27.1432 32.6192C27.1432 33.596 26.3736 34.3656 25.3672 34.3656Z" fill="white"/>
<path d="M39.0721 53.3984C38.0953 53.3984 37.2961 52.5992 37.2961 51.6224V43.956C37.2961 41.9432 38.7761 40.1376 40.8481 39.664C44.3113 38.8648 46.8273 35.7864 46.8273 32.2936C46.8273 32.264 46.8273 32.264 46.8273 32.2344C46.8273 28.0904 43.4825 24.6864 39.3385 24.6272C39.2793 24.6272 39.2497 24.6272 39.1905 24.6272C38.1249 24.6272 37.0593 24.864 36.0529 25.308C35.3129 25.6336 34.4249 25.5448 33.7737 25.0416C33.4185 24.7752 33.1817 24.42 33.0337 24.0056C32.7969 23.4728 32.8561 22.8512 33.1817 22.3184L33.2113 22.2592C33.6849 21.5488 34.5729 21.2824 35.3425 21.608C35.4017 21.6376 35.4609 21.6672 35.5201 21.6968C36.6449 21.312 37.7993 21.1048 38.9833 21.0752C39.0425 21.0752 39.1017 21.0752 39.1609 21.0752C45.2881 21.0752 50.2905 26.048 50.3497 32.1752C50.3497 32.2048 50.3497 32.2344 50.3497 32.2344C50.3497 37.3848 46.6793 41.9728 41.5881 43.1272C41.1441 43.216 40.7889 43.6008 40.7889 43.956V51.6224C40.8481 52.5992 40.0489 53.3984 39.0721 53.3984Z" fill="white"/>
<path d="M61.479 32.0568C60.5022 32.0568 59.703 31.2576 59.703 30.2808C59.703 27.38 57.335 25.012 54.4342 25.012C53.931 25.012 53.4278 25.0712 52.9542 25.2192C52.007 25.4856 51.0302 24.9528 50.7638 24.0056C50.4974 23.0584 51.0302 22.0816 51.9774 21.8152C52.7766 21.5784 53.6054 21.46 54.4638 21.46C59.3182 21.46 63.2846 25.4264 63.2846 30.2808C63.255 31.2576 62.4558 32.0568 61.479 32.0568Z" fill="white"/>
<path d="M64.8238 53.3983C63.847 53.3983 63.0478 52.5991 63.0478 51.6223V45.8207C63.0478 44.1039 64.291 42.5647 66.0374 42.1799C68.435 41.6471 70.1518 39.4863 70.1518 37.0591C70.1518 34.1879 67.843 31.8495 64.9422 31.7903C64.883 31.7903 64.8534 31.7903 64.7942 31.7903C64.0542 31.7903 63.3438 31.9383 62.6334 32.2639C61.923 32.5895 61.0942 32.5007 60.4726 32.0271C59.8806 31.5535 59.5846 30.7839 59.703 30.0439C59.851 29.1559 60.6502 28.5343 61.5678 28.5639C61.7454 28.5639 61.923 28.6231 62.1006 28.6823C62.9294 28.4159 63.7878 28.2679 64.6758 28.2383C64.735 28.2383 64.7942 28.2383 64.8534 28.2383C69.7374 28.2383 73.7038 32.1751 73.7038 37.0295C73.7038 41.0847 70.803 44.6959 66.8366 45.6135C66.7182 45.6431 66.5998 45.7319 66.5998 45.7911V51.5927C66.5998 52.5991 65.8006 53.3983 64.8238 53.3983Z" fill="white"/>
<path d="M64.8241 61.9824H11.5441C10.5673 61.9824 9.76807 61.1832 9.76807 60.2064C9.76807 59.2296 10.5673 58.4304 11.5441 58.4304H64.8241C65.8009 58.4304 66.6001 59.2296 66.6001 60.2064C66.6001 61.1832 65.8009 61.9824 64.8241 61.9824Z" fill="white"/>
<path d="M21.3121 61.9823C20.3353 61.9823 19.5361 61.1832 19.5361 60.2064V48.6624C19.5361 47.6856 20.3353 46.8864 21.3121 46.8864C22.2889 46.8864 23.0881 47.6856 23.0881 48.6624V60.2064C23.0881 61.1832 22.2889 61.9823 21.3121 61.9823Z" fill="white"/>
<path d="M29.3038 61.9823C28.327 61.9823 27.5278 61.1832 27.5278 60.2064V48.6624C27.5278 47.6856 28.327 46.8864 29.3038 46.8864C30.2806 46.8864 31.0798 47.6856 31.0798 48.6624V60.2064C31.0798 61.1832 30.2806 61.9823 29.3038 61.9823Z" fill="white"/>
<path d="M47.9518 61.9823C46.975 61.9823 46.1758 61.1832 46.1758 60.2064V48.6624C46.1758 47.6856 46.975 46.8864 47.9518 46.8864C48.9286 46.8864 49.7278 47.6856 49.7278 48.6624V60.2064C49.7278 61.1832 48.9286 61.9823 47.9518 61.9823Z" fill="white"/>
<path d="M55.944 61.9823C54.9672 61.9823 54.168 61.1832 54.168 60.2064V48.6624C54.168 47.6856 54.9672 46.8864 55.944 46.8864C56.9208 46.8864 57.72 47.6856 57.72 48.6624V60.2064C57.72 61.1832 56.9208 61.9823 55.944 61.9823Z" fill="white"/>
</svg>
